<svg width="24" height="24" viewBox="0 0 24 24" fill="none" xmlns="http://www.w3.org/2000/svg">
<path d="M12 0C12.7956 0 13.5585 0.316297 14.1211 0.878906C14.6837 1.44151 15 2.20435 15 3V3.08594L15.0068 3.18066C15.0209 3.27382 15.056 3.3632 15.1084 3.44238C15.1783 3.54786 15.2773 3.63074 15.3936 3.68066L15.4033 3.68555C15.5221 3.73798 15.6544 3.75363 15.7822 3.73047C15.91 3.7073 16.0282 3.6455 16.1211 3.55469L16.1729 3.50293L16.3906 3.30469C16.6183 3.1177 16.8733 2.96577 17.1465 2.85254C17.5106 2.70161 17.9007 2.62306 18.2949 2.62305C18.6891 2.62305 19.0792 2.70163 19.4434 2.85254C19.8076 3.00351 20.1394 3.224 20.418 3.50293H20.417C20.6958 3.78147 20.9174 4.11252 21.0684 4.47656C21.2192 4.84061 21.2969 5.23093 21.2969 5.625C21.2969 6.01907 21.2192 6.40939 21.0684 6.77344C20.9551 7.04658 20.8022 7.30163 20.6152 7.5293L20.417 7.74707L20.3652 7.79883L20.3027 7.87305C20.2461 7.95139 20.2078 8.04179 20.1904 8.1377C20.1673 8.26549 20.1819 8.39778 20.2344 8.5166C20.2622 8.5796 20.2836 8.64493 20.2979 8.71191C20.3454 8.78265 20.4059 8.84408 20.4775 8.8916C20.5832 8.96159 20.7072 8.99949 20.834 9H21C21.7957 9 22.5585 9.3163 23.1211 9.87891C23.6837 10.4415 24 11.2043 24 12C24 12.7957 23.6837 13.5585 23.1211 14.1211C22.5585 14.6837 21.7957 15 21 15H20.9141L20.8193 15.0068C20.7262 15.0209 20.6368 15.056 20.5576 15.1084C20.4521 15.1783 20.3693 15.2773 20.3193 15.3936L20.3145 15.4033C20.262 15.5221 20.2464 15.6544 20.2695 15.7822C20.2927 15.91 20.3545 16.0283 20.4453 16.1211L20.4971 16.1729L20.6953 16.3906C20.8823 16.6183 21.0342 16.8733 21.1475 17.1465C21.2984 17.5106 21.3769 17.9007 21.377 18.2949C21.377 18.6891 21.2984 19.0792 21.1475 19.4434C20.9965 19.8076 20.776 20.1393 20.4971 20.418L20.4961 20.417C20.2176 20.6955 19.8873 20.9175 19.5234 21.0684C19.1594 21.2192 18.7691 21.2969 18.375 21.2969C17.9809 21.2969 17.5906 21.2192 17.2266 21.0684C16.9534 20.9551 16.6984 20.8022 16.4707 20.6152L16.2529 20.417L16.2012 20.3652L16.127 20.3027C16.0486 20.2461 15.9582 20.2079 15.8623 20.1904C15.7345 20.1673 15.6022 20.1819 15.4834 20.2344L15.4736 20.2393C15.3574 20.2892 15.2584 20.3721 15.1885 20.4775C15.1185 20.5832 15.0806 20.7072 15.0801 20.834V21C15.0801 21.7956 14.7638 22.5585 14.2012 23.1211C13.6386 23.6837 12.8757 24 12.0801 24C11.2844 24 10.5216 23.6837 9.95898 23.1211C9.39638 22.5585 9.08008 21.7957 9.08008 21V20.9336L9.07031 20.8369C9.05362 20.7413 9.01594 20.6499 8.95898 20.5703C8.88322 20.4645 8.77741 20.3839 8.65527 20.3389C8.63558 20.3316 8.61588 20.3229 8.59668 20.3145C8.47787 20.262 8.34556 20.2464 8.21777 20.2695C8.08998 20.2927 7.97175 20.3545 7.87891 20.4453L7.82715 20.4971C7.5486 20.7758 7.21755 20.9966 6.85352 21.1475C6.48938 21.2984 6.09926 21.3769 5.70508 21.377C5.31092 21.377 4.92076 21.2984 4.55664 21.1475C4.19245 20.9965 3.86065 20.776 3.58203 20.4971V20.4961C3.30373 20.2178 3.08237 19.8871 2.93164 19.5234C2.7808 19.1594 2.70312 18.7691 2.70312 18.375C2.70312 17.9809 2.7808 17.5906 2.93164 17.2266C3.08255 16.8625 3.30424 16.5315 3.58301 16.2529L3.63477 16.2012C3.72553 16.1084 3.78637 15.99 3.80957 15.8623C3.83274 15.7345 3.81806 15.6022 3.76562 15.4834L3.76074 15.4736C3.71084 15.3574 3.62792 15.2584 3.52246 15.1885C3.4433 15.1361 3.35387 15.101 3.26074 15.0869L3.16602 15.0801H3C2.20437 15.0801 1.44151 14.7638 0.878906 14.2012C0.316316 13.6386 2.07095e-05 12.8757 0 12.0801C0 11.2844 0.316322 10.5216 0.878906 9.95898C1.44151 9.39638 2.20435 9.08008 3 9.08008H3.06641C3.1968 9.07703 3.3236 9.03486 3.42969 8.95898C3.53555 8.88322 3.6161 8.77741 3.66113 8.65527L3.68555 8.59668C3.73798 8.47787 3.75363 8.34556 3.73047 8.21777C3.7073 8.08998 3.6455 7.97175 3.55469 7.87891L3.50293 7.82715C3.22417 7.5486 3.00345 7.21756 2.85254 6.85352C2.70161 6.48938 2.62306 6.09926 2.62305 5.70508C2.62305 5.31092 2.70163 4.92077 2.85254 4.55664C3.00351 4.19245 3.224 3.86065 3.50293 3.58203C3.78137 3.3035 4.11274 3.08246 4.47656 2.93164C4.84062 2.7808 5.23093 2.70312 5.625 2.70312C6.01907 2.70312 6.40938 2.7808 6.77344 2.93164C7.13748 3.08255 7.46852 3.30425 7.74707 3.58301L7.79883 3.63477C7.89162 3.72553 8.00998 3.78637 8.1377 3.80957C8.26549 3.83274 8.39778 3.81806 8.5166 3.76562L8.61328 3.72852C8.64579 3.71804 8.67855 3.70826 8.71191 3.70117C8.78246 3.65369 8.84418 3.59399 8.8916 3.52246C8.96088 3.41786 8.99875 3.29532 9 3.16992V3C9 2.20435 9.3163 1.44151 9.87891 0.878906C10.4415 0.316297 11.2044 0 12 0ZM12 8C9.79086 8 8 9.79086 8 12C8 14.2091 9.79086 16 12 16C14.2091 16 16 14.2091 16 12C16 9.79086 14.2091 8 12 8ZM12 10C13.1046 10 14 10.8954 14 12C14 13.1046 13.1046 14 12 14C10.8954 14 10 13.1046 10 12C10 10.8954 10.8954 10 12 10Z" fill="#8E44AD"/>
</svg>
