<svg width="140" height="140" viewBox="0 0 140 140" fill="none" xmlns="http://www.w3.org/2000/svg">
<g clip-path="url(#clip0_75_1965)">
<path d="M47.4256 40.0549C39.4878 46.0378 34.2518 54.9289 32.8694 64.7722C31.4871 74.6156 34.0716 84.605 40.0544 92.5428C46.0373 100.481 54.9284 105.717 64.7717 107.099C74.6151 108.481 84.6045 105.897 92.5423 99.9139C95.3024 97.8336 95.8512 93.9261 93.7708 91.166C92.7933 89.869 91.4172 89.0811 89.9423 88.7847C88.5258 88.4966 87.1497 87.7086 86.1972 86.445C84.1168 83.6848 84.6656 79.7774 87.4257 77.697L93.3119 73.2605C102.49 66.3426 104.325 53.279 97.407 44.1006C86.3283 29.4019 63.9533 27.5977 47.4256 40.0549ZM51.6937 83.7701C48.9335 85.8505 45.0261 85.3017 42.9457 82.5416C40.8653 79.7814 41.4141 75.874 44.1742 73.7936C46.9344 71.7132 50.8418 72.262 52.9222 75.0221C55.0026 77.7823 54.4538 81.6897 51.6937 83.7701ZM51.6443 62.9486C48.8841 65.029 44.9767 64.4803 42.8963 61.7201C40.8159 58.96 41.3646 55.0525 44.1248 52.9721C46.885 50.8918 50.7924 51.4405 52.8728 54.2007C54.9532 56.9608 54.4044 60.8683 51.6443 62.9486ZM68.2718 50.4162C65.5116 52.4966 61.6042 51.9479 59.5238 49.1877C57.4434 46.4275 57.9921 42.5201 60.7523 40.4397C63.5125 38.3594 67.4199 38.9081 69.5003 41.6683C71.5807 44.4284 71.0319 48.3359 68.2718 50.4162ZM88.2742 56.1988C85.514 58.2792 81.6066 57.7304 79.5262 54.9703C77.4458 52.2101 77.9946 48.3027 80.7547 46.2223C83.5149 44.1419 87.4223 44.6906 89.5027 47.4508C91.5831 50.211 91.0344 54.1184 88.2742 56.1988Z" fill="#8E44AD"/>
</g>
<defs>
<clipPath id="clip0_75_1965">
<rect width="99.9432" height="99.9432" fill="white" transform="translate(0 60.1558) rotate(-37.0059)"/>
</clipPath>
</defs>
</svg>
