<svg width="49" height="50" viewBox="0 0 49 50" fill="none" xmlns="http://www.w3.org/2000/svg">
<path fill-rule="evenodd" clip-rule="evenodd" d="M46.9584 8.19726C46.9584 4.81453 44.2162 2.07227 40.8334 2.07227H8.16675C4.78401 2.07227 2.04175 4.81453 2.04175 8.19726V40.8639C2.04175 44.2468 4.78401 46.9889 8.16675 46.9889H40.8334C44.2162 46.9889 46.9584 44.2468 46.9584 40.8639V8.19726ZM42.8751 8.19726C42.8751 7.06969 41.961 6.1556 40.8334 6.1556H8.16675C7.03918 6.1556 6.12508 7.06969 6.12508 8.19726V40.8639C6.12508 41.9915 7.03918 42.9056 8.16675 42.9056H40.8334C41.961 42.9056 42.8751 41.9915 42.8751 40.8639V8.19726Z" fill="white"/>
<path d="M9.81346 35.8028L18.6242 19.6499C19.398 18.2313 21.4351 18.2313 22.2089 19.6499L28.6782 31.5102L30.894 27.6327C31.6778 26.2611 33.6553 26.2611 34.4391 27.6327L39.0878 35.7677C39.8655 37.1287 38.8826 38.8223 37.315 38.8223H11.6058C10.0561 38.8223 9.07136 37.1634 9.81346 35.8028Z" fill="white"/>
<path d="M36.7499 16.3641C36.7499 18.6193 34.9218 20.4474 32.6666 20.4474C30.4114 20.4474 28.5833 18.6193 28.5833 16.3641C28.5833 14.1089 30.4114 12.2808 32.6666 12.2808C34.9218 12.2808 36.7499 14.1089 36.7499 16.3641Z" fill="white"/>
</svg>
