<svg width="66" height="66" viewBox="0 0 66 66" fill="none" xmlns="http://www.w3.org/2000/svg">
<g filter="url(#filter0_i_200_1050)">
<rect width="66" height="66" rx="17" fill="#F5F5F7"/>
<path d="M33 43.3125C35.3438 43.3125 37.3363 42.4925 38.9775 40.8525C40.6187 39.2125 41.4387 37.22 41.4375 34.875C41.4363 32.53 40.6162 30.5381 38.9775 28.8994C37.3387 27.2606 35.3463 26.44 33 26.4375C30.6537 26.435 28.6619 27.2556 27.0244 28.8994C25.3869 30.5431 24.5662 32.535 24.5625 34.875C24.5588 37.215 25.3794 39.2075 27.0244 40.8525C28.6694 42.4975 30.6612 43.3175 33 43.3125ZM33 39.5625C31.6875 39.5625 30.5781 39.1094 29.6719 38.2031C28.7656 37.2969 28.3125 36.1875 28.3125 34.875C28.3125 33.5625 28.7656 32.4531 29.6719 31.5469C30.5781 30.6406 31.6875 30.1875 33 30.1875C34.3125 30.1875 35.4219 30.6406 36.3281 31.5469C37.2344 32.4531 37.6875 33.5625 37.6875 34.875C37.6875 36.1875 37.2344 37.2969 36.3281 38.2031C35.4219 39.1094 34.3125 39.5625 33 39.5625ZM18 49.875C16.9688 49.875 16.0863 49.5081 15.3525 48.7744C14.6188 48.0406 14.2512 47.1575 14.25 46.125V23.625C14.25 22.5938 14.6175 21.7112 15.3525 20.9775C16.0875 20.2437 16.97 19.8763 18 19.875H23.9062L27.375 16.125H38.625L42.0938 19.875H48C49.0312 19.875 49.9144 20.2425 50.6494 20.9775C51.3844 21.7125 51.7513 22.595 51.75 23.625V46.125C51.75 47.1562 51.3831 48.0394 50.6494 48.7744C49.9156 49.5094 49.0325 49.8763 48 49.875H18Z" fill="url(#paint0_linear_200_1050)"/>
</g>
<defs>
<filter id="filter0_i_200_1050" x="0" y="0" width="66" height="66" filterUnits="userSpaceOnUse" color-interpolation-filters="sRGB">
<feFlood flood-opacity="0" result="BackgroundImageFix"/>
<feBlend mode="normal" in="SourceGraphic" in2="BackgroundImageFix" result="shape"/>
<feColorMatrix in="SourceAlpha" type="matrix" values="0 0 0 0 0 0 0 0 0 0 0 0 0 0 0 0 0 0 127 0" result="hardAlpha"/>
<feMorphology radius="5" operator="erode" in="SourceAlpha" result="effect1_innerShadow_200_1050"/>
<feOffset/>
<feGaussianBlur stdDeviation="3.5"/>
<feComposite in2="hardAlpha" operator="arithmetic" k2="-1" k3="1"/>
<feColorMatrix type="matrix" values="0 0 0 0 0 0 0 0 0 0 0 0 0 0 0 0 0 0 0.08 0"/>
<feBlend mode="normal" in2="shape" result="effect1_innerShadow_200_1050"/>
</filter>
<linearGradient id="paint0_linear_200_1050" x1="50.4023" y1="46.0829" x2="14.3626" y2="43.5637" gradientUnits="userSpaceOnUse">
<stop stop-color="#9B59B6"/>
<stop offset="1" stop-color="#8E44AD"/>
</linearGradient>
</defs>
</svg>
