<svg width="26" height="26" viewBox="0 0 26 26" fill="none" xmlns="http://www.w3.org/2000/svg">
<path d="M12.6362 25.1377C10.9191 25.1377 9.30778 24.8122 7.80225 24.1611C6.29671 23.5182 4.97428 22.6271 3.83496 21.4878C2.69564 20.3485 1.80046 19.026 1.14941 17.5205C0.50651 16.015 0.185059 14.4036 0.185059 12.6865C0.185059 10.9694 0.50651 9.35807 1.14941 7.85254C1.80046 6.34701 2.69564 5.02458 3.83496 3.88525C4.97428 2.73779 6.29671 1.84261 7.80225 1.19971C9.30778 0.556803 10.9191 0.235352 12.6362 0.235352C14.3534 0.235352 15.9647 0.556803 17.4702 1.19971C18.9757 1.84261 20.2982 2.73779 21.4375 3.88525C22.5768 5.02458 23.4679 6.34701 24.1108 7.85254C24.7619 9.35807 25.0874 10.9694 25.0874 12.6865C25.0874 14.4036 24.7619 16.015 24.1108 17.5205C23.4679 19.026 22.5768 20.3485 21.4375 21.4878C20.2982 22.6271 18.9757 23.5182 17.4702 24.1611C15.9647 24.8122 14.3534 25.1377 12.6362 25.1377ZM12.6362 23.0625C14.0685 23.0625 15.4113 22.7939 16.6646 22.2568C17.9178 21.7197 19.0205 20.9751 19.9727 20.0229C20.9248 19.0708 21.6694 17.9681 22.2065 16.7148C22.7437 15.4616 23.0122 14.1188 23.0122 12.6865C23.0122 11.2542 22.7437 9.91146 22.2065 8.6582C21.6694 7.39681 20.9248 6.29411 19.9727 5.3501C19.0205 4.39795 17.9178 3.65332 16.6646 3.11621C15.4113 2.5791 14.0685 2.31055 12.6362 2.31055C11.2039 2.31055 9.86117 2.5791 8.60791 3.11621C7.35465 3.65332 6.25195 4.39795 5.2998 5.3501C4.34766 6.29411 3.60303 7.39681 3.06592 8.6582C2.52881 9.91146 2.26025 11.2542 2.26025 12.6865C2.26025 14.1188 2.52881 15.4616 3.06592 16.7148C3.60303 17.9681 4.34766 19.0708 5.2998 20.0229C6.25195 20.9751 7.35465 21.7197 8.60791 22.2568C9.86117 22.7939 11.2039 23.0625 12.6362 23.0625ZM12.624 14.8838C11.9974 14.8838 11.6759 14.5623 11.6597 13.9194L11.501 7.46191C11.4928 7.15267 11.5905 6.89632 11.7939 6.69287C12.0055 6.48942 12.2782 6.3877 12.6118 6.3877C12.9373 6.3877 13.2059 6.49349 13.4175 6.70508C13.6372 6.90853 13.743 7.16488 13.7349 7.47412L13.5518 13.9194C13.5436 14.5623 13.2344 14.8838 12.624 14.8838ZM12.624 18.8511C12.266 18.8511 11.9567 18.729 11.6963 18.4849C11.4359 18.2326 11.3057 17.9315 11.3057 17.5815C11.3057 17.2316 11.4359 16.9346 11.6963 16.6904C11.9567 16.4382 12.266 16.312 12.624 16.312C12.9821 16.312 13.2913 16.4341 13.5518 16.6782C13.8122 16.9224 13.9424 17.2235 13.9424 17.5815C13.9424 17.9396 13.8081 18.2407 13.5396 18.4849C13.2791 18.729 12.974 18.8511 12.624 18.8511Z" fill="white"/>
</svg>
