<svg width="93" height="92" viewBox="0 0 93 92" fill="none" xmlns="http://www.w3.org/2000/svg">
<g clip-path="url(#clip0_69_1129)">
<path d="M31.8288 26.0504C26.6663 29.9415 23.2609 35.724 22.3619 42.1258C21.4628 48.5276 23.1437 55.0244 27.0348 60.1869C30.9258 65.3494 36.7083 68.7547 43.1101 69.6538C49.512 70.5528 56.0088 68.8719 61.1713 64.9809C62.9664 63.6279 63.3233 61.0866 61.9702 59.2915C61.3345 58.448 60.4395 57.9355 59.4803 57.7428C58.559 57.5554 57.6641 57.0429 57.0446 56.2211C55.6916 54.4259 56.0485 51.8847 57.8436 50.5317L61.6718 47.6463C67.6411 43.1471 68.8343 34.6509 64.3351 28.6816C57.1299 19.122 42.5779 17.9486 31.8288 26.0504ZM34.6046 54.4814C32.8095 55.8344 30.2682 55.4776 28.9152 53.6824C27.5622 51.8873 27.919 49.346 29.7142 47.993C31.5093 46.64 34.0506 46.9969 35.4036 48.792C36.7566 50.5871 36.3997 53.1284 34.6046 54.4814ZM34.5724 40.9398C32.7773 42.2928 30.236 41.9359 28.883 40.1408C27.53 38.3457 27.8869 35.8044 29.682 34.4514C31.4772 33.0984 34.0184 33.4553 35.3714 35.2504C36.7245 37.0455 36.3676 39.5868 34.5724 40.9398ZM45.3865 32.7891C43.5913 34.1421 41.0501 33.7852 39.697 31.9901C38.344 30.195 38.7009 27.6537 40.496 26.3007C42.2912 24.9477 44.8324 25.3046 46.1855 27.0997C47.5385 28.8948 47.1816 31.4361 45.3865 32.7891ZM58.3954 36.5499C56.6003 37.9029 54.059 37.546 52.706 35.7509C51.353 33.9558 51.7099 31.4145 53.505 30.0615C55.3001 28.7085 57.8414 29.0654 59.1944 30.8605C60.5474 32.6556 60.1905 35.1969 58.3954 36.5499Z" fill="white"/>
</g>
<defs>
<clipPath id="clip0_69_1129">
<rect width="65" height="65" fill="white" transform="translate(0.984619 39.1235) rotate(-37.0059)"/>
</clipPath>
</defs>
</svg>
