<svg width="24" height="25" viewBox="0 0 24 25" fill="none" xmlns="http://www.w3.org/2000/svg">
<path d="M7.5 17L14.5 15L16.5 8L9.5 10L7.5 17ZM12 14C11.5833 14 11.2293 13.8543 10.938 13.563C10.6467 13.2717 10.5007 12.9173 10.5 12.5C10.4993 12.0827 10.6453 11.7287 10.938 11.438C11.2307 11.1473 11.5847 11.0013 12 11C12.4153 10.9987 12.7697 11.1447 13.063 11.438C13.3563 11.7313 13.502 12.0853 13.5 12.5C13.498 12.9147 13.3523 13.269 13.063 13.563C12.7737 13.857 12.4193 14.0027 12 14ZM12 22.5C10.6167 22.5 9.31667 22.2373 8.1 21.712C6.88334 21.1867 5.825 20.4743 4.925 19.575C4.025 18.6757 3.31267 17.6173 2.788 16.4C2.26333 15.1827 2.00067 13.8827 2 12.5C1.99933 11.1173 2.262 9.81733 2.788 8.6C3.314 7.38267 4.02633 6.32433 4.925 5.425C5.82367 4.52567 6.882 3.81333 8.1 3.288C9.318 2.76267 10.618 2.5 12 2.5C13.382 2.5 14.682 2.76267 15.9 3.288C17.118 3.81333 18.1763 4.52567 19.075 5.425C19.9737 6.32433 20.6863 7.38267 21.213 8.6C21.7397 9.81733 22.002 11.1173 22 12.5C21.998 13.8827 21.7353 15.1827 21.212 16.4C20.6887 17.6173 19.9763 18.6757 19.075 19.575C18.1737 20.4743 17.1153 21.187 15.9 21.713C14.6847 22.239 13.3847 22.5013 12 22.5ZM12 20.5C14.2167 20.5 16.1043 19.721 17.663 18.163C19.2217 16.605 20.0007 14.7173 20 12.5C19.9993 10.2827 19.2203 8.395 17.663 6.837C16.1057 5.279 14.218 4.5 12 4.5C9.782 4.5 7.89433 5.27933 6.337 6.838C4.77967 8.39667 4.00067 10.284 4 12.5C3.99933 14.716 4.77867 16.6037 6.338 18.163C7.89733 19.7223 9.78467 20.5013 12 20.5Z" fill="#8E8E93"/>
</svg>
