<svg width="27" height="19" viewBox="0 0 27 19" fill="none" xmlns="http://www.w3.org/2000/svg">
<path d="M4.1123 18.5146C2.99512 18.5146 2.15365 18.2354 1.58789 17.6768C1.02214 17.1182 0.739258 16.2874 0.739258 15.1846V3.3252C0.739258 2.21517 1.00781 1.38444 1.54492 0.833008C2.08203 0.274414 2.8304 -0.00488281 3.79004 -0.00488281H23.2871C24.4043 -0.00488281 25.2458 0.274414 25.8115 0.833008C26.3773 1.38444 26.6602 2.21517 26.6602 3.3252V15.1846C26.6602 16.2874 26.3916 17.1182 25.8545 17.6768C25.3174 18.2354 24.569 18.5146 23.6094 18.5146H4.1123ZM4.04785 16.8711H23.3408C23.8779 16.8711 24.2897 16.7279 24.5762 16.4414C24.8698 16.1549 25.0166 15.736 25.0166 15.1846V3.3252C25.0166 2.77376 24.8698 2.35482 24.5762 2.06836C24.2897 1.7819 23.8779 1.63867 23.3408 1.63867H4.04785C3.5179 1.63867 3.10612 1.7819 2.8125 2.06836C2.52604 2.35482 2.38281 2.77018 2.38281 3.31445V15.1738C2.38281 15.7324 2.52604 16.1549 2.8125 16.4414C3.10612 16.7279 3.5179 16.8711 4.04785 16.8711ZM13.6943 12.0801C13.3506 12.0801 13.014 12.0156 12.6846 11.8867C12.3551 11.7507 12.0365 11.543 11.7285 11.2637L1.62012 2.16504L2.7373 1.03711L12.6631 9.98535C12.9925 10.279 13.3363 10.4258 13.6943 10.4258C14.0596 10.4258 14.4033 10.279 14.7256 9.98535L24.6514 1.03711L25.7686 2.16504L15.6602 11.2637C15.3522 11.543 15.0335 11.7507 14.7041 11.8867C14.3747 12.0156 14.0381 12.0801 13.6943 12.0801ZM2.89844 17.1396L1.78125 16.0117L9.4082 8.38477L10.5254 9.50195L2.89844 17.1396ZM24.5117 17.1504L16.8633 9.50195L17.9912 8.38477L25.6289 16.0225L24.5117 17.1504Z" fill="white"/>
</svg>
