<svg width="59" height="60" viewBox="0 0 59 60" fill="none" xmlns="http://www.w3.org/2000/svg">
<path fill-rule="evenodd" clip-rule="evenodd" d="M44.6718 2.48926C45.9757 2.48926 47.2262 3.00725 48.1483 3.92932L55.1015 10.8825C56.0236 11.8046 56.5416 13.0552 56.5416 14.3591V49.1976C56.5416 53.2708 53.2398 56.5726 49.1666 56.5726H9.83325C5.76016 56.5726 2.45825 53.2708 2.45825 49.1976V9.86426C2.45825 5.79117 5.76016 2.48926 9.83325 2.48926H44.6718ZM9.83325 7.40592C8.47556 7.40592 7.37492 8.50657 7.37492 9.86426V49.1976C7.37492 50.5553 8.47556 51.6559 9.83325 51.6559H12.2916V36.9059C12.2916 32.8327 15.5935 29.5309 19.6666 29.5309H39.3333C43.4065 29.5309 46.7083 32.8327 46.7083 36.9059V51.6559H49.1666C50.5243 51.6559 51.6249 50.5553 51.6249 49.1976V16.8175C51.6249 15.5135 51.1069 14.2629 50.1848 13.3409L45.69 8.84599C44.7679 7.92392 43.5173 7.40592 42.2134 7.40592H41.7916V12.3226C41.7916 16.3957 38.4898 19.6976 34.4166 19.6976H24.5833C20.5102 19.6976 17.2083 16.3957 17.2083 12.3226V7.40592H9.83325ZM41.7916 51.6559V36.9059C41.7916 35.5482 40.691 34.4476 39.3333 34.4476H19.6666C18.3089 34.4476 17.2083 35.5482 17.2083 36.9059V51.6559H41.7916ZM22.1249 7.40592H36.8749V12.3226C36.8749 13.6803 35.7743 14.7809 34.4166 14.7809H24.5833C23.2256 14.7809 22.1249 13.6803 22.1249 12.3226V7.40592Z" fill="white"/>
</svg>
