<svg width="29" height="29" viewBox="0 0 29 29" fill="none" xmlns="http://www.w3.org/2000/svg">
<path d="M9.21339 7.73318L12.5967 3.35297C12.8384 3.03075 13.1256 2.79432 13.4583 2.64368C13.791 2.49304 14.1382 2.41732 14.4999 2.41651C14.8615 2.4157 15.2091 2.49143 15.5426 2.64368C15.8761 2.79593 16.1629 3.03236 16.403 3.35297L19.7863 7.73318L24.9217 9.45505C25.4453 9.61616 25.8582 9.91341 26.1603 10.3468C26.4624 10.7802 26.6134 11.2583 26.6134 11.7811C26.6134 12.0228 26.5779 12.2644 26.5071 12.5061C26.4362 12.7478 26.3206 12.9794 26.1603 13.2009L22.8374 17.9134L22.9582 22.8676C22.9783 23.5724 22.7467 24.1665 22.2634 24.6498C21.7801 25.1332 21.2162 25.3748 20.5717 25.3748C20.5314 25.3748 20.3099 25.3446 19.9071 25.2842L14.4999 23.7738L9.09256 25.2842C8.99187 25.3245 8.8811 25.3499 8.76027 25.3603C8.63943 25.3708 8.52867 25.3757 8.42798 25.3748C7.78353 25.3748 7.21964 25.1332 6.73631 24.6498C6.25298 24.1665 6.02138 23.5724 6.04152 22.8676L6.16235 17.8832L2.86964 13.2009C2.70853 12.9794 2.59253 12.7478 2.52164 12.5061C2.45075 12.2644 2.41571 12.0228 2.41652 11.7811C2.41652 11.2776 2.56273 10.8096 2.85514 10.377C3.14756 9.94443 3.55517 9.63711 4.07798 9.45505L9.21339 7.73318ZM10.6936 9.81755L4.83318 11.7509L8.57902 17.1582L8.45818 22.928L14.4999 21.2665L20.5415 22.9582L20.4207 17.1582L24.1665 11.8113L18.3061 9.81755L14.4999 4.83318L10.6936 9.81755Z" fill="black"/>
</svg>
