<svg width="25" height="24" viewBox="0 0 25 24" fill="none" xmlns="http://www.w3.org/2000/svg">
<path d="M7.21339 5.73367L10.5967 1.35346C10.8384 1.03123 11.1256 0.794804 11.4583 0.644165C11.791 0.493526 12.1382 0.417804 12.4999 0.416999C12.8615 0.416193 13.2091 0.491915 13.5426 0.644165C13.8761 0.796415 14.1629 1.03285 14.403 1.35346L17.7863 5.73367L22.9217 7.45554C23.4453 7.61665 23.8582 7.9139 24.1603 8.34729C24.4624 8.78068 24.6134 9.25878 24.6134 9.78158C24.6134 10.0232 24.5779 10.2649 24.5071 10.5066C24.4362 10.7483 24.3206 10.9798 24.1603 11.2014L20.8374 15.9139L20.9582 20.868C20.9783 21.5729 20.7467 22.167 20.2634 22.6503C19.7801 23.1337 19.2162 23.3753 18.5717 23.3753C18.5314 23.3753 18.3099 23.3451 17.9071 23.2847L12.4999 21.7743L7.09256 23.2847C6.99187 23.325 6.8811 23.3504 6.76027 23.3608C6.63943 23.3713 6.52867 23.3761 6.42798 23.3753C5.78353 23.3753 5.21964 23.1337 4.73631 22.6503C4.25298 22.167 4.02138 21.5729 4.04152 20.868L4.16235 15.8837L0.869642 11.2014C0.708531 10.9798 0.592531 10.7483 0.521642 10.5066C0.450753 10.2649 0.415712 10.0232 0.416517 9.78158C0.416517 9.27811 0.562726 8.81008 0.855142 8.3775C1.14756 7.94492 1.55517 7.6376 2.07798 7.45554L7.21339 5.73367ZM8.6936 7.81804L2.83318 9.75137L6.57902 15.1587L6.45818 20.9285L12.4999 19.267L18.5415 20.9587L18.4207 15.1587L22.1665 9.81179L16.3061 7.81804L12.4999 2.83367L8.6936 7.81804Z" fill="white"/>
</svg>
